HIERARCHY
ROOT Hips
{
	OFFSET 0.000000 0.000000 0.000000 
	CHANNELS 6 Xposition Yposition Zposition Zrotation Yrotation Xrotation
	JOINT LeftUpLeg
	{
		OFFSET 1.363060 -1.794630 0.839290 
		CHANNELS 3 Zrotation Yrotation Xrotation
		JOINT LeftLeg
		{
			OFFSET 2.448110 -6.726130 0.000000 
			CHANNELS 3 Zrotation Yrotation Xrotation
			JOINT LeftFoot
			{
				OFFSET 2.562200 -7.039590 0.000000 
				CHANNELS 3 Zrotation Yrotation Xrotation
				JOINT LeftToeBase
				{
					OFFSET 0.157640 -0.433110 2.322550 
					CHANNELS 3 Zrotation Yrotation Xrotation
					End Site
					{
						OFFSET 0.000000 0.000000 0.000000 
					}
				}
			}
		}
	}
	JOINT RightUpLeg
	{
		OFFSET -1.305520 -1.794630 0.839290 
		CHANNELS 3 Zrotation Yrotation Xrotation
		JOINT RightLeg
		{
			OFFSET -2.542530 -6.985550 0.000000 
			CHANNELS 3 Zrotation Yrotation Xrotation
			JOINT RightFoot
			{
				OFFSET -2.568260 -7.056230 0.000000 
				CHANNELS 3 Zrotation Yrotation Xrotation
				JOINT RightToeBase
				{
					OFFSET -0.164730 -0.452590 2.363150 
					CHANNELS 3 Zrotation Yrotation Xrotation
					End Site
					{
						OFFSET 0.000000 0.000000 0.000000 
					}
				}
			}
		}
	}
	JOINT Spine
	{
		OFFSET 0.028270 2.035590 -0.193380 
		CHANNELS 3 Zrotation Yrotation Xrotation
		JOINT Spine1
		{
			OFFSET 0.056720 2.048850 -0.042750 
			CHANNELS 3 Zrotation Yrotation Xrotation
			JOINT Neck1
			{
				OFFSET -0.054170 1.746240 0.172020 
				CHANNELS 3 Zrotation Yrotation Xrotation
				JOINT Head
				{
					OFFSET 0.104070 1.761360 -0.123970 
					CHANNELS 3 Zrotation Yrotation Xrotation
					End Site
					{
						OFFSET 0.000000 0.000000 0.000000 
					}
				}
			}
			JOINT LeftArm
			{
				OFFSET 3.362410 1.200890 -0.311210 
				CHANNELS 3 Zrotation Yrotation Xrotation
				JOINT LeftForeArm
				{
					OFFSET 4.983000 -0.000000 -0.000000 
					CHANNELS 3 Zrotation Yrotation Xrotation
					JOINT LeftHand
					{
						OFFSET 3.483560 -0.000000 -0.000000 
						CHANNELS 3 Zrotation Yrotation Xrotation
						JOINT LeftHandIndex1
						{
							OFFSET 0.715260 -0.000000 -0.000000 
							CHANNELS 3 Zrotation Yrotation Xrotation
							End Site
							{
								OFFSET 0.000000 0.000000 0.000000 
							}
						}
					}
				}
			}
			JOINT RightArm
			{
				OFFSET -3.136600 1.374050 -0.404650 
				CHANNELS 3 Zrotation Yrotation Xrotation
				JOINT RightForeArm
				{
					OFFSET -5.241900 -0.000000 -0.000000 
					CHANNELS 3 Zrotation Yrotation Xrotation
					JOINT RightHand
					{
						OFFSET -3.444170 -0.000000 -0.000000 
						CHANNELS 3 Zrotation Yrotation Xrotation
						JOINT RightHandIndex1
						{
							OFFSET -0.622530 -0.000000 -0.000000 
							CHANNELS 3 Zrotation Yrotation Xrotation
							End Site
							{
								OFFSET 0.000000 0.000000 0.000000 
							}
						}
					}
				}
			}
		}
	}
}
MOTION
Frames: 12
Frame Time: 0.041667
0.496480 17.907169 -36.779385 -18.377239 66.295639 -17.371203 -4.847989 -7.882350 -10.042071 5.645884 13.990590 43.180533 1.832534 -32.213113 -25.324385 1.167200 6.858100 19.295500 27.678754 -1.891696 -28.625368 -8.316077 -15.243234 51.799368 -4.152359 7.828496 -35.448164 -0.870300 5.948200 -16.634100 -3.130689 -5.703861 10.386761 2.339418 -2.968977 -6.489038 10.886871 -11.482551 37.238599 1.696100 -2.046300 19.187000 -75.766223 -27.123747 41.809491 54.698454 -47.616377 -29.812655 0.590557 -0.809293 -23.977098 -7.125000 0.000000 0.000000 57.499249 1.271173 48.310406 -57.984734 47.792881 -33.336337 0.362536 0.396474 -14.699626 7.125000 0.000000 0.000000 
0.517849 17.945671 -36.412078 -20.013641 67.175056 -18.785464 -4.380116 -8.518678 -10.370905 5.769715 14.054750 43.536996 2.603980 -29.438864 -27.732768 0.908400 6.073400 16.997500 28.066999 -2.054998 -28.499790 -8.172601 -15.132775 51.284225 -4.099239 6.811013 -35.453772 -0.996400 6.352500 -17.810600 -2.887553 -5.847856 10.296980 2.560097 -3.041638 -6.287769 10.937169 -11.722499 37.250760 1.702000 -2.147600 19.181600 -76.245225 -27.020029 41.244890 53.533765 -47.169570 -28.715796 0.553620 -0.798037 -24.057700 -7.125000 0.000000 0.000000 57.784861 0.357506 48.675362 -59.440561 48.244185 -34.714732 0.341550 0.445884 -14.457054 7.125000 0.000000 0.000000 
0.540083 17.982055 -36.045830 -21.294258 68.074664 -19.866017 -4.090678 -9.079812 -10.720496 5.869402 14.104079 43.849747 3.129600 -26.820701 -29.332245 0.680400 5.274100 14.692100 28.183726 -2.056715 -28.240553 -8.002911 -15.002629 50.658455 -4.102246 6.887657 -35.427010 -0.932600 6.151700 -17.225100 -2.748375 -5.954854 10.207346 2.827035 -3.093430 -6.075765 11.038778 -12.043015 37.233308 1.722800 -2.282500 19.168000 -76.726590 -26.920715 40.772688 52.415470 -46.717301 -27.672576 0.512886 -0.788592 -24.251439 -7.125000 0.000000 0.000000 58.135036 -0.577134 48.847832 -60.624248 48.593247 -35.848935 0.323145 0.478101 -14.181587 7.125000 0.000000 0.000000 
0.560008 18.024311 -35.681796 -23.054140 68.702588 -21.337326 -3.539128 -9.426021 -11.162905 5.955109 14.151306 44.137729 3.490917 -24.270001 -30.412705 0.418100 4.150500 11.500400 28.573370 -1.646355 -27.856959 -7.835671 -14.867384 50.034662 -4.140155 6.615852 -35.676931 -0.908600 6.074100 -16.999400 -2.458122 -5.956858 10.102773 3.020409 -3.095005 -5.897862 11.155746 -12.278758 37.134436 1.753400 -2.385700 19.079700 -77.263524 -26.810048 40.334183 51.276397 -46.234825 -26.628145 0.474426 -0.783642 -24.374387 -7.125000 0.000000 0.000000 58.541382 -1.611661 48.956850 -61.809819 48.927387 -36.992982 0.304116 0.512572 -13.981863 7.125000 0.000000 0.000000 
0.579452 18.071475 -35.324499 -23.917159 69.314799 -22.000526 -3.337895 -9.582992 -11.547589 6.017942 14.184694 44.368356 3.682485 -22.157510 -30.965636 0.258600 3.271500 9.035500 28.570251 -1.304092 -27.580284 -7.685267 -14.748030 49.473845 -4.112054 6.677268 -35.500823 -0.805900 5.729200 -16.000700 -2.356079 -5.899963 9.989555 3.275693 -3.057800 -5.803693 11.420120 -12.569723 36.922295 1.852100 -2.520000 18.934300 -77.854404 -26.620489 40.096163 50.017806 -45.673559 -25.507597 0.432043 -0.776576 -24.510568 -7.125000 0.000000 0.000000 59.073498 -2.697499 48.942961 -62.589795 49.141588 -37.752087 0.289688 0.543869 -13.826730 7.125000 0.000000 0.000000 
0.599472 18.113827 -34.965182 -25.201421 69.985472 -23.064583 -3.038450 -9.873740 -11.927640 6.075833 14.213830 44.583985 3.824565 -20.093400 -31.436605 0.121400 2.246100 6.186200 28.682750 -1.052809 -27.335596 -7.542398 -14.631262 48.936850 -4.099068 6.638352 -35.430379 -0.742700 5.505000 -15.354800 -2.290929 -5.913199 9.873770 3.464522 -3.061250 -5.689729 11.634657 -12.844933 36.769712 1.923300 -2.638900 18.826300 -78.325226 -26.434271 39.681302 48.869605 -45.138598 -24.482976 0.391810 -0.769823 -24.528110 -7.125000 0.000000 0.000000 59.618390 -3.694061 49.011781 -63.486467 49.376070 -38.634173 0.275421 0.574542 -13.624652 7.125000 0.000000 0.000000 
0.619397 18.156468 -34.607212 -26.475799 70.626275 -24.144260 -2.757301 -10.120210 -12.267081 6.119289 14.233752 44.754025 3.897782 -18.231557 -31.709982 0.036400 1.231000 3.384700 28.766016 -0.780226 -27.098536 -7.420915 -14.530818 48.476357 -4.086260 6.758713 -35.313688 -0.661000 5.199800 -14.479300 -2.308936 -5.914859 9.755273 3.603448 -3.059026 -5.616518 11.880654 -13.122503 36.593940 2.004900 -2.756400 18.703100 -78.751916 -26.202522 39.285162 47.721016 -44.579334 -23.472073 0.351623 -0.762714 -24.498873 -7.125000 0.000000 0.000000 60.258949 -4.691355 49.055672 -64.231968 49.564515 -39.377661 0.263362 0.602022 -13.430975 7.125000 0.000000 0.000000 
0.638937 18.199494 -34.251263 -27.834714 71.208246 -25.315491 -2.451278 -10.335848 -12.579227 6.155884 14.250722 44.900958 3.927570 -16.573179 -31.870252 0.001500 0.249300 0.685000 28.869227 -0.475579 -26.861805 -7.308207 -14.436207 48.046889 -4.061295 6.954982 -35.112574 -0.574700 4.854700 -13.494700 -2.383757 -5.904893 9.632967 3.673351 -3.052525 -5.578528 12.140255 -13.389033 36.398702 2.089300 -2.868100 18.565800 -79.127402 -25.923436 38.893845 46.576958 -43.997423 -22.478371 0.311595 -0.755033 -24.439040 -7.125000 0.000000 0.000000 60.980848 -5.673314 49.095076 -64.827891 49.710157 -39.982676 0.253341 0.626214 -13.245427 7.125000 0.000000 0.000000 
0.658476 18.242712 -33.897432 -29.241262 71.749739 -26.555115 -2.145907 -10.546083 -12.829418 6.178506 14.257309 44.996121 3.932022 -15.090235 -31.975943 0.011000 -0.678200 -1.863800 28.964415 -0.167834 -26.617781 -7.203359 -14.347365 47.645247 -4.018165 7.270885 -34.783056 -0.479300 4.439600 -12.316700 -2.513320 -5.888961 9.515332 3.685896 -3.044392 -5.571139 12.393630 -13.639844 36.192208 2.168800 -2.974000 18.421000 -79.457381 -25.600501 38.509381 45.445492 -43.396564 -21.508028 0.271485 -0.747519 -24.384571 -7.125000 0.000000 0.000000 61.760731 -6.627631 49.140037 -65.266698 49.813497 -40.440119 0.245532 0.646353 -13.071209 7.125000 0.000000 0.000000 
0.678401 18.286315 -33.545718 -30.679790 72.257562 -27.854229 -1.849160 -10.768985 -12.996728 6.184521 14.250751 45.028202 3.923980 -13.758865 -32.068923 0.058100 -1.555300 -4.278100 29.041549 0.151995 -26.341255 -7.102423 -14.261428 47.257224 -3.956730 7.738491 -34.315745 -0.386300 3.991400 -11.052600 -2.676268 -5.870105 9.411984 3.658377 -3.035879 -5.583944 12.619296 -13.861773 35.974989 2.235800 -3.071400 18.267900 -79.756833 -25.239872 38.127787 44.330650 -42.778364 -20.563785 0.231213 -0.741432 -24.372810 -7.125000 0.000000 0.000000 62.571283 -7.549196 49.200816 -65.555004 49.877862 -40.754165 0.239819 0.662451 -12.914699 7.125000 0.000000 0.000000 
0.698999 18.331555 -33.196122 -32.125930 72.738004 -29.193093 -1.573873 -11.015847 -13.068043 6.171387 14.227797 44.988271 3.910528 -12.470685 -32.184962 0.140400 -2.415000 -6.653900 29.086870 0.485291 -26.010356 -7.000133 -14.174035 46.863257 -3.872054 8.357197 -33.685611 -0.293100 3.481600 -9.622700 -2.870979 -5.852676 9.321943 3.597229 -3.028882 -5.616524 12.799149 -14.046764 35.754251 2.282800 -3.157700 18.108200 -80.024042 -24.835973 37.749733 43.242900 -42.149756 -19.653895 0.190457 -0.737783 -24.455413 -7.125000 0.000000 0.000000 63.402348 -8.439346 49.290898 -65.703810 49.906788 -40.935635 0.235834 0.674308 -12.772715 7.125000 0.000000 0.000000 
0.720464 18.376987 -32.849029 -33.522209 73.205070 -30.510577 -1.342579 -11.316033 -13.032928 6.136855 14.186191 44.866178 3.896368 -11.300082 -32.326550 0.247000 -3.197900 -8.830200 29.074020 0.835071 -25.621839 -6.893934 -14.083166 46.454297 -3.752638 9.117195 -32.836514 -0.204300 2.910200 -8.028900 -3.044388 -5.836276 9.253862 3.546918 -3.021880 -5.650087 12.914750 -14.184896 35.527921 2.306700 -3.234200 17.942300 -80.304425 -24.410051 37.379048 42.179505 -41.508074 -18.775130 0.148876 -0.738821 -24.664355 -7.125000 0.000000 0.000000 64.190218 -9.290776 49.413338 -65.723538 49.903181 -40.990719 0.233323 0.681955 -12.659158 7.125000 0.000000 0.000000 
